<svg version="1.1" id="Layer_1" xmlns="http://www.w3.org/2000/svg" xmlns:xlink="http://www.w3.org/1999/xlink" x="0px" y="0px"
	 width="100%" viewBox="0 0 304 272" enable-background="new 0 0 304 272" xml:space="preserve">
<path fill="#FFFFFF" opacity="1.000000" stroke="none" 
	d="
M121.733635,132.033447 
	C123.128998,110.074066 136.018417,95.594185 157.316086,93.227066 
	C174.240616,91.346001 194.157227,102.329262 198.189133,123.790718 
	C202.767944,148.163315 187.566208,168.649704 162.879135,170.876419 
	C146.667053,172.338699 127.373802,161.808395 122.785583,140.386703 
	C122.231071,137.797806 122.075050,135.123566 121.733635,132.033447 
M185.109283,139.493210 
	C186.641281,135.132446 186.534409,130.733994 185.616577,126.255402 
	C182.971451,113.348618 170.569061,104.623070 156.892303,106.384613 
	C144.416824,107.991425 134.638748,118.081551 134.682739,132.933838 
	C134.717957,144.822327 144.324112,155.569946 155.246078,157.491638 
	C168.509109,159.825241 179.502075,153.403030 185.109283,139.493210 
z"/>
<path fill="#FFFFFF" opacity="1.000000" stroke="none" 
	d="
M91.505417,138.470184 
	C86.659966,138.592545 82.207893,137.889816 77.614899,138.992783 
	C78.847076,141.865448 81.291809,143.224899 82.894669,145.285995 
	C85.130119,148.160538 85.456078,151.138214 82.865768,153.865662 
	C80.166031,156.708313 76.807953,157.063599 73.971291,154.362473 
	C67.942505,148.621780 62.047611,142.720245 56.410671,136.596695 
	C53.552643,133.491928 53.847431,129.780365 56.827545,126.700294 
	C62.156815,121.192276 67.532433,115.722076 73.066818,110.422096 
	C76.562340,107.074623 80.108032,106.993164 82.745697,109.954971 
	C85.778931,113.360939 84.909431,116.658028 82.057602,119.729271 
	C80.626892,121.270065 79.178665,122.794586 77.010078,125.101028 
	C84.999969,125.101028 91.934891,125.054245 98.868538,125.127274 
	C101.188225,125.151695 103.566750,125.214348 105.808365,125.734055 
	C109.340630,126.553009 111.307030,129.151764 110.938469,132.688339 
	C110.598259,135.953018 108.432213,138.165497 104.923973,138.309464 
	C100.604599,138.486710 96.276054,138.440201 91.505417,138.470184 
z"/>
<path fill="#FFFFFF" opacity="1.000000" stroke="none" 
	d="
M225.024857,138.398499 
	C221.868866,138.379456 219.204346,138.414276 216.543777,138.327911 
	C212.836670,138.207581 210.445114,136.150925 210.119034,132.593292 
	C209.767517,128.757904 212.014755,126.238121 215.796661,125.604218 
	C222.067780,124.553093 228.420731,125.300758 234.733322,125.076050 
	C237.316742,124.984093 239.966507,125.458817 242.662903,124.541679 
	C241.825607,121.911598 239.617859,120.768280 238.267914,118.952721 
	C235.982910,115.879532 235.605103,112.785622 238.342636,109.922249 
	C241.153076,106.982590 244.446487,107.235184 247.212097,109.866203 
	C253.118195,115.484940 258.913544,121.231056 264.532349,127.136154 
	C267.298523,130.043243 267.360199,133.751801 264.680573,136.651306 
	C259.150330,142.635406 253.356827,148.388992 247.462738,154.018723 
	C244.577652,156.774399 241.125854,157.128983 238.185104,153.950562 
	C235.456848,151.001816 236.079025,147.895767 238.437347,144.944565 
	C239.966721,143.030701 242.223236,141.725082 243.682388,138.398331 
	C237.291885,138.398331 231.404984,138.398331 225.024857,138.398499 
z"/>
<path fill="#FFFFFF" opacity="1.000000" stroke="none" 
	d="
M155.300522,184.539291 
	C157.581039,181.679535 160.184952,181.028549 163.109894,182.270905 
	C166.134933,183.555771 166.941452,186.410080 167.022339,189.277786 
	C167.205139,195.758713 167.055557,202.248367 167.128967,208.733459 
	C167.150833,210.666656 166.657547,212.691666 167.884857,214.841904 
	C170.318207,213.863647 171.583084,211.587494 173.444031,210.080902 
	C176.443848,207.652313 179.571457,207.213425 182.398941,210.011200 
	C185.342117,212.923508 185.350998,216.327713 182.451767,219.313736 
	C176.776001,225.159378 171.037659,230.951706 165.137344,236.568756 
	C162.199982,239.365097 158.687286,239.377396 155.741013,236.545166 
	C149.868637,230.900055 144.117935,225.121658 138.481155,219.240967 
	C135.621155,216.257202 135.627106,212.857712 138.678192,209.969101 
	C141.582092,207.219818 144.705887,207.625443 147.593124,210.213303 
	C149.306122,211.748703 150.958084,213.352219 153.223907,215.474319 
	C155.195999,204.864471 152.206116,194.659302 155.300522,184.539291 
z"/>
<path fill="#FFFFFF" opacity="1.000000" stroke="none" 
	d="
M137.191193,46.792133 
	C142.999191,39.635235 149.377167,33.540848 155.766846,27.475916 
	C158.719589,24.673254 162.283386,24.717449 165.205994,27.495369 
	C171.115784,33.112568 176.869583,38.902306 182.507736,44.793159 
	C185.151932,47.555882 185.379150,50.951786 182.645325,53.766163 
	C179.747726,56.749149 176.344467,56.605484 173.366760,53.714409 
	C171.595230,51.994423 170.161301,49.926727 168.575592,48.015350 
	C168.090500,48.245941 167.605408,48.476532 167.120316,48.707123 
	C167.120316,55.919537 167.164810,63.132381 167.094543,70.344109 
	C167.072006,72.657097 166.941559,75.004150 166.512238,77.269623 
	C165.906906,80.463951 163.686920,82.144592 160.492554,82.208618 
	C157.208588,82.274437 155.243790,80.405312 154.464294,77.294479 
	C153.312653,72.698357 154.034988,68.013184 153.918533,63.370136 
	C153.802765,58.753944 153.893188,54.132580 153.893188,49.080402 
	C151.195328,49.748180 150.096207,51.485897 148.720901,52.795319 
	C146.312607,55.088268 143.747665,56.948189 140.293716,55.165257 
	C137.012817,53.471653 136.073395,50.658340 137.191193,46.792133 
z"/>
<path fill="#FFFFFF" opacity="1.000000" stroke="none" 
	d="
M221.973114,209.301086 
	C217.150467,209.295578 212.821671,209.300308 208.492981,209.280228 
	C204.424225,209.261353 201.703629,207.539291 201.483231,203.200607 
	C201.266739,198.938828 203.773163,196.900543 207.700226,196.119308 
	C209.603058,195.740753 211.666840,196.521835 214.851120,194.492615 
	C210.029938,190.110992 205.503326,186.035645 201.027237,181.905548 
	C199.683990,180.666153 198.407761,179.336365 197.230011,177.939102 
	C194.776962,175.028900 194.250702,171.817429 197.039810,168.968109 
	C199.980850,165.963593 203.419968,166.274811 206.385117,169.025024 
	C210.288589,172.645523 214.012161,176.464508 217.727203,180.281723 
	C219.572037,182.177307 221.225143,184.259460 223.401123,186.758011 
	C225.220917,183.640884 224.397888,181.298782 224.695770,179.151688 
	C225.222549,175.354401 227.126266,172.829620 231.117920,172.885849 
	C235.096436,172.941864 237.209869,175.428207 237.268280,179.314667 
	C237.383347,186.971237 237.350159,194.631317 237.275833,202.288956 
	C237.233047,206.698975 234.843323,209.042892 230.457108,209.229630 
	C227.797546,209.342834 225.130615,209.282745 221.973114,209.301086 
z"/>
<path fill="#FFFFFF" opacity="1.000000" stroke="none" 
	d="
M196.596405,86.802155 
	C202.820770,80.805977 208.825027,75.106369 215.780869,68.503433 
	C211.443787,68.054008 208.842422,68.002762 206.342224,67.473564 
	C202.704178,66.703545 201.042938,64.134811 201.400131,60.506718 
	C201.736206,57.093033 203.752396,54.902245 207.251770,54.845898 
	C215.231384,54.717400 223.220230,54.651878 231.194443,54.904362 
	C235.381104,55.036922 237.296387,57.829918 237.301910,61.937965 
	C237.311752,69.255661 237.399048,76.574585 237.291534,83.890610 
	C237.223465,88.522614 234.704453,91.330688 230.901535,91.156448 
	C226.533722,90.956314 224.952774,88.046005 224.687973,84.150986 
	C224.564957,82.341438 224.666977,80.516602 224.666977,77.944786 
	C221.499634,79.391975 219.860519,81.697723 217.939621,83.564095 
	C214.243042,87.155762 210.728104,90.934532 207.027130,94.521469 
	C204.417557,97.050613 201.378082,98.218468 198.062698,95.830505 
	C194.851089,93.517296 194.368484,90.506142 196.596405,86.802155 
z"/>
<path fill="#FFFFFF" opacity="1.000000" stroke="none" 
	d="
M111.746750,171.691010 
	C112.708069,170.730957 113.384842,169.991501 114.134766,169.335709 
	C117.272530,166.591736 120.649040,165.684097 123.844406,168.992203 
	C127.026146,172.286179 126.149918,175.636154 123.168694,178.647675 
	C118.838570,183.021805 114.456650,187.344910 110.151268,191.743073 
	C109.147095,192.768860 107.749825,193.546387 107.457138,195.281464 
	C109.253120,196.501266 111.310226,195.727356 113.199387,196.050415 
	C117.153992,196.726730 119.733978,198.771652 119.553528,202.996521 
	C119.375549,207.163498 116.899704,209.285538 112.715446,209.289230 
	C105.396149,209.295700 98.076088,209.327042 90.757751,209.235443 
	C86.384102,209.180725 83.844612,206.798294 83.748184,202.452728 
	C83.578468,194.804611 83.616989,187.149048 83.723145,179.498749 
	C83.780731,175.348892 86.102295,172.820328 90.254486,172.919357 
	C94.198341,173.013428 96.113205,175.671188 96.303963,179.509018 
	C96.401917,181.479843 96.321144,183.459549 96.321144,187.000961 
	C102.036972,181.331772 106.766403,176.640930 111.746750,171.691010 
z"/>
<path fill="#FFFFFF" opacity="1.000000" stroke="none" 
	d="
M119.935944,82.082024 
	C121.452805,83.656075 122.805740,84.906204 123.970581,86.312172 
	C126.469345,89.328186 126.545975,92.433739 123.658348,95.201698 
	C120.732109,98.006676 117.477722,97.650322 114.721779,95.062462 
	C109.992020,90.621147 105.531395,85.894440 100.892700,81.354042 
	C99.749718,80.235291 98.920555,78.665695 96.650261,78.149284 
	C96.521523,80.519547 96.513672,82.784241 96.250748,85.018921 
	C95.832680,88.572113 93.957535,91.038071 90.197220,91.105156 
	C86.199554,91.176483 83.905418,88.692131 83.798531,84.892921 
	C83.573914,76.909454 83.582039,68.910706 83.806862,60.927032 
	C83.917450,56.999844 86.546127,54.913837 90.394569,54.844501 
	C97.883408,54.709564 105.376511,54.716087 112.866676,54.787235 
	C116.980797,54.826313 119.566551,56.938061 119.629456,61.169704 
	C119.692772,65.429955 117.005722,67.444008 113.018196,67.809364 
	C111.064331,67.988380 109.080505,67.840370 105.813980,67.840370 
	C110.931244,73.000282 115.308998,77.414513 119.935944,82.082024 
z"/>
</svg>